<svg xmlns="http://www.w3.org/2000/svg" width="30" height="30" viewBox="0 0 30 30"><defs><clipPath id="x53na"><path fill="#fff" d="M15-.067c8.119 0 14.7 6.567 14.7 14.667S23.119 29.266 15 29.266.3 22.7.3 14.6C.3 6.5 6.88-.067 15-.067z"/></clipPath></defs><g><g><path fill="#fff" d="M15-.067c8.119 0 14.7 6.567 14.7 14.667S23.119 29.266 15 29.266.3 22.7.3 14.6C.3 6.5 6.88-.067 15-.067z"/><path fill="none" stroke="#fff" stroke-linecap="round" stroke-linejoin="round" stroke-miterlimit="20" stroke-width="2" d="M15-.067c8.119 0 14.7 6.567 14.7 14.667S23.119 29.266 15 29.266.3 22.7.3 14.6C.3 6.5 6.88-.067 15-.067z" clip-path="url(&quot;#x53na&quot;)"/></g></g></svg>